HIERARCHY
ROOT Hips
{
	OFFSET 0.000000 0.000000 0.000000
	CHANNELS 6 Xposition Yposition Zposition Zrotation Xrotation Yrotation
	JOINT Spine
	{
		OFFSET 0.793407 13.673625 0.052747
		CHANNELS 3 Zrotation Xrotation Yrotation
		JOINT Chest
		{
			OFFSET -0.130296 17.596075 0.767193
			CHANNELS 3 Zrotation Xrotation Yrotation
			JOINT Neck
			{
				OFFSET -8.090542 2.776628 -1.560437
				CHANNELS 3 Zrotation Xrotation Yrotation
				JOINT Head
				{
					OFFSET 11.938639 18.277111 3.312617
					CHANNELS 3 Zrotation Xrotation Yrotation
					End Site
					{
						OFFSET 0.000000 -5.000000 0.000000
					}
				}
			}
			JOINT LeftShoulder
			{
				OFFSET 1.274989 0.150051 -12.703164
				CHANNELS 3 Zrotation Xrotation Yrotation
				JOINT LeftElbow
				{
					OFFSET 11.745139 -16.131335 -20.256260
					CHANNELS 3 Zrotation Xrotation Yrotation
					JOINT LeftWrist
					{
						OFFSET 19.185541 -12.373389 -4.591042
						CHANNELS 3 Zrotation Xrotation Yrotation
						End Site
						{
							OFFSET 0.000000 -5.000000 0.000000
						}
					}
				}
			}
			JOINT RightShoulder
			{
				OFFSET -3.549781 -2.084157 12.261621
				CHANNELS 3 Zrotation Xrotation Yrotation
				JOINT RightElbow
				{
					OFFSET -9.006273 -16.579529 20.387500
					CHANNELS 3 Zrotation Xrotation Yrotation
					JOINT RightWrist
					{
						OFFSET 2.525963 -17.038967 14.748538
						CHANNELS 3 Zrotation Xrotation Yrotation
						End Site
						{
							OFFSET 0.000000 -5.000000 0.000000
						}
					}
				}
			}
		}
	}
	JOINT LeftHip
	{
		OFFSET 8.049929 -1.859705 -6.472301
		CHANNELS 3 Zrotation Xrotation Yrotation
		JOINT LeftKnee
		{
			OFFSET 0.497996 -50.161986 -6.481667
			CHANNELS 3 Zrotation Xrotation Yrotation
			JOINT LeftAnkle
			{
				OFFSET -14.326972 -34.948386 0.522296
				CHANNELS 3 Zrotation Xrotation Yrotation
				JOINT LeftToe
				{
					OFFSET 13.821765 -7.051480 2.778874
					CHANNELS 3 Zrotation Xrotation Yrotation
					End Site
					{
						OFFSET 0.000000 -5.000000 0.000000
					}
				}
			}
		}
	}
	JOINT RightHip
	{
		OFFSET 5.917073 -1.311102 9.385524
		CHANNELS 3 Zrotation Xrotation Yrotation
		JOINT RightKnee
		{
			OFFSET -2.387914 -50.913889 -0.296862
			CHANNELS 3 Zrotation Xrotation Yrotation
			JOINT RightAnkle
			{
				OFFSET -3.534845 -38.140776 -5.172328
				CHANNELS 3 Zrotation Xrotation Yrotation
				JOINT RightToe
				{
					OFFSET 16.118103 -3.948058 3.058546
					CHANNELS 3 Zrotation Xrotation Yrotation
					End Site
					{
						OFFSET 0.000000 -5.000000 0.000000
					}
				}
			}
		}
	}
}
MOTION
Frames: 13
Frame Time: 0.008333
-13.538616 97.913705 -2.931066 7.751596 -3.192446 -1.219418 -3.816990 -0.816381 0.133308 -7.854132 4.142931 10.158175 1.829146 0.477796 -0.657630 -0.000000 0.000000 0.000000 -7.144710 -10.510554 0.775972 -1.516657 7.302104 5.000000 -0.000000 0.000000 0.000000 7.431207 4.888508 6.762390 0.136506 0.000000 -0.301728 -0.000000 0.000000 0.000000 4.843243 3.473303 -0.735431 -0.418932 4.071349 -1.659387 -11.320619 -1.678253 -9.750937 -0.000000 0.000000 0.000000 -9.676587 5.739429 0.272207 -5.000000 2.123081 0.633785 7.334592 -3.027530 -5.049960 -0.000000 0.000000 0.000000
-13.713277 97.957497 -2.933388 7.742485 -3.129356 -1.357150 -3.913597 -0.936125 0.131864 -7.762237 4.158338 10.248773 1.782415 0.448729 -0.629110 -0.000000 0.000000 0.000000 -7.080275 -10.541134 0.657168 -1.054876 6.949984 5.000000 -0.000000 0.000000 0.000000 7.512284 4.988069 6.812475 0.153956 0.000000 -0.266450 -0.000000 0.000000 0.000000 5.025927 3.525560 -0.766214 -0.589218 3.928297 -1.596971 -11.824240 -1.570207 -9.842044 -0.000000 0.000000 0.000000 -9.544803 5.637233 0.261096 -5.000000 2.116994 0.644071 7.320422 -3.015557 -5.023655 -0.000000 0.000000 0.000000
-13.882391 98.000191 -2.943840 7.737952 -3.040786 -1.507343 -3.996408 -1.046294 0.130147 -7.668498 4.171368 10.330285 1.721093 0.377350 -0.569358 -0.000000 0.000000 0.000000 -7.021470 -10.543482 0.572862 -0.654585 6.578593 5.000000 -0.000000 0.000000 0.000000 7.570582 5.050932 6.853622 0.180282 0.000000 -0.225121 -0.000000 0.000000 0.000000 5.214262 3.549811 -0.797097 -0.745183 3.778706 -1.532762 -12.276938 -1.496810 -9.985256 -0.000000 0.000000 0.000000 -9.440188 5.483870 0.249872 -5.000000 2.141888 0.647181 7.301204 -2.997136 -4.981149 -0.000000 0.000000 0.000000
-14.047053 98.044475 -2.965591 7.726305 -2.919542 -1.707802 -4.043154 -1.166331 0.126638 -7.584148 4.197376 10.457869 1.634525 0.258005 -0.472687 -0.000000 0.000000 0.000000 -6.975439 -10.536980 0.514769 -0.292760 6.192861 5.000000 -0.000000 0.000000 0.000000 7.600933 5.048388 6.895791 0.175022 0.000000 -0.210933 -0.000000 0.000000 0.000000 5.398848 3.540353 -0.826244 -0.876909 3.626811 -1.468644 -12.734975 -1.429990 -10.151799 -0.000000 0.000000 0.000000 -9.347626 5.269250 0.237433 -5.000000 2.188684 0.643979 7.276687 -2.957374 -4.876245 -0.000000 0.000000 0.000000
-14.207031 98.087331 -2.997582 7.714075 -2.796491 -1.938467 -4.068673 -1.240441 0.124312 -7.490548 4.226676 10.600266 1.529736 0.091531 -0.341207 -0.000000 0.000000 0.000000 -6.955015 -10.548156 0.475777 0.014319 5.803607 5.000000 -0.000000 0.000000 0.000000 7.605050 4.970988 6.946753 0.125903 0.000000 -0.232608 -0.000000 0.000000 0.000000 5.584662 3.520971 -0.855186 -1.011782 3.479766 -1.406819 -13.174917 -1.367305 -10.318534 -0.000000 0.000000 0.000000 -9.282072 5.036408 0.226069 -5.000000 2.249449 0.631692 7.241551 -2.904297 -4.737717 -0.000000 0.000000 0.000000
-14.366294 98.124638 -3.039571 7.693120 -2.659291 -2.174338 -4.072542 -1.300202 0.121872 -7.420495 4.256491 10.736281 1.441947 -0.103307 -0.194206 -0.000000 0.000000 0.000000 -6.941111 -10.544254 0.460070 0.292626 5.398618 5.000000 -0.000000 0.000000 0.000000 7.605940 4.843053 7.022869 0.044011 0.000000 -0.284211 -0.000000 0.000000 0.000000 5.781123 3.474712 -0.884707 -1.145642 3.357058 -1.355133 -13.624409 -1.309663 -10.508856 -0.000000 0.000000 0.000000 -9.222126 4.785348 0.214629 -5.000000 2.300180 0.614566 7.160828 -2.830457 -4.568432 -0.000000 0.000000 0.000000
-14.523148 98.155624 -3.083213 7.676130 -2.549992 -2.427660 -4.069322 -1.298910 0.121824 -7.372183 4.294053 10.894352 1.369088 -0.341021 -0.021500 -0.000000 0.000000 0.000000 -6.937616 -10.554618 0.445445 0.560055 4.990036 5.000000 -0.000000 0.000000 0.000000 7.589610 4.638600 7.120248 -0.061100 0.000000 -0.355757 -0.000000 0.000000 0.000000 5.975505 3.453870 -0.914791 -1.311499 3.239726 -1.305350 -14.035506 -1.258342 -10.689841 -0.000000 0.000000 0.000000 -9.176023 4.573401 0.205384 -5.000000 2.317703 0.594979 7.081346 -2.744408 -4.358910 -0.000000 0.000000 0.000000
-14.688193 98.182558 -3.132157 7.624116 -2.441458 -2.669403 -4.037039 -1.273104 0.121880 -7.295734 4.322715 11.026715 1.293279 -0.584290 0.155135 -0.000000 0.000000 0.000000 -6.956250 -10.567711 0.459092 0.809472 4.631957 5.000000 -0.000000 0.000000 0.000000 7.551498 4.400783 7.207234 -0.167399 0.000000 -0.428738 -0.000000 0.000000 0.000000 6.215778 3.427669 -0.951869 -1.508215 3.142003 -1.263201 -14.425087 -1.211148 -10.868217 -0.000000 0.000000 0.000000 -9.093133 4.371595 0.195024 -5.000000 2.333471 0.574160 6.970674 -2.662811 -4.185507 -0.000000 0.000000 0.000000
-14.847040 98.204480 -3.181905 7.601533 -2.347750 -2.931087 -4.026004 -1.219645 0.123795 -7.227542 4.355951 11.173239 1.215475 -0.847299 0.345001 -0.000000 0.000000 0.000000 -6.989345 -10.581870 0.491905 1.007629 4.245458 5.000000 -0.000000 0.000000 0.000000 7.508154 4.126498 7.307485 -0.293378 0.000000 -0.521860 -0.000000 0.000000 0.000000 6.412241 3.405033 -0.982057 -1.710719 3.060783 -1.227844 -14.755235 -1.162518 -10.998390 -0.000000 0.000000 0.000000 -9.039927 4.180044 0.186540 -4.969452 2.362452 0.554105 6.895356 -2.586351 -4.000581 -0.000000 0.000000 0.000000
-15.005424 98.220145 -3.232090 7.583759 -2.260377 -3.179583 -4.017292 -1.136345 0.127045 -7.152073 4.385192 11.306145 1.139602 -1.131799 0.548562 -0.000000 0.000000 0.000000 -7.026063 -10.585911 0.539328 1.163589 3.875228 5.000000 -0.000000 0.000000 0.000000 7.448691 3.826329 7.400074 -0.419090 0.000000 -0.617390 -0.000000 0.000000 0.000000 6.588490 3.387165 -1.009192 -1.892455 2.982202 -1.194174 -15.073373 -1.112488 -11.116920 -0.000000 0.000000 0.000000 -8.992862 4.030626 0.179819 -4.842588 2.321541 0.536513 6.801771 -2.513041 -3.838159 -0.000000 0.000000 0.000000
-15.164461 98.230835 -3.281056 7.572866 -2.171444 -3.398202 -4.011883 -1.071047 0.129632 -7.065631 4.406905 11.413203 1.063386 -1.381370 0.728436 -0.000000 0.000000 0.000000 -7.053109 -10.543693 0.616826 1.286899 3.517777 4.798057 -0.000000 0.000000 0.000000 7.384997 3.522205 7.488200 -0.566737 0.000000 -0.729692 -0.000000 0.000000 0.000000 6.747746 3.357885 -1.033041 -2.050287 2.922791 -1.168613 -15.282693 -1.073456 -11.178980 -0.000000 0.000000 0.000000 -8.952871 3.885014 0.173621 -4.702320 2.306095 0.515616 6.702840 -2.453062 -3.721021 -0.000000 0.000000 0.000000
-15.323141 98.235652 -3.327611 7.543418 -2.086191 -3.586543 -3.964522 -1.001391 0.130931 -7.024033 4.422405 11.483490 1.017758 -1.625704 0.899470 -0.000000 0.000000 0.000000 -7.059585 -10.449052 0.714790 1.396583 3.171238 4.235991 -0.000000 0.000000 0.000000 7.335337 3.226546 7.589147 -0.724185 0.000000 -0.853196 -0.000000 0.000000 0.000000 6.911204 3.323027 -1.057205 -2.200262 2.882235 -1.150673 -15.546805 -1.030907 -11.276579 -0.000000 0.000000 0.000000 -8.895264 3.771708 0.167842 -4.560282 2.270264 0.495564 6.602627 -2.381189 -3.566008 -0.000000 0.000000 0.000000
-15.475532 98.235864 -3.371883 7.524263 -2.003045 -3.738789 -3.910516 -0.934519 0.131821 -7.032912 4.430738 11.512286 1.017576 -1.872355 1.064626 -0.000000 0.000000 0.000000 -7.042171 -10.309334 0.821328 1.516811 2.860355 3.723080 -0.000000 0.000000 0.000000 7.303491 2.922770 7.717243 -0.886612 0.000000 -0.980363 -0.000000 0.000000 0.000000 7.046716 3.283548 -1.076634 -2.336073 2.855239 -1.138299 -15.770843 -0.990011 -11.346861 -0.000000 0.000000 0.000000 -8.847034 3.673504 0.162990 -4.397453 2.217902 0.473295 6.440531 -2.317557 -3.481979 -0.000000 0.000000 0.000000
